:SAMPLES-PER-SECOND 30
:FULLY-SPECIFIED
:DEGREES
348
root  27.8635 37.5817 2.09003 57.2055 -85.3453 -61.7565
RightUpLeg  -17.9775 -4.84612 4.89771
RightLeg  27.9139 0.0303506 -0.231045
RightFoot  -6.1753 0.0709301 -2.46779
RightToes  3.49245e-010 0 -3.6325e-017
Spine  4.28244 -0.50649 13.3943
Spine1  7.46103 1.42564 -1.77636
HEad  -16.0109 -0.634144 -1.7604
LeftShoulder1  -0.512602 4.76425 -34.5003
LeftArm  11.3742 9.26597 -41.4435
LeftForeArm  24.4303 -16.5316 -7.24954
LeftHand  -0.0424471 8.31298 0.109287
RightShoulder  -0.92621 -6.06229 29.6253
RightArm  15.0312 3.05373 47.6824
RightForeArm  19.5262 6.734 7.78035
RightHand  -0.155561 4.31215 -2.10972
LeftUpLeg  -3.52739 -2.76662 5.8989
LeftLeg  59.2052 -1.36205 -1.9624
LeftFoot  9.60553 1.03862 -5.77384
LeftToes  -5.6298e-010 8.41567e-011 -1.83319e-011
349
root  26.7126 37.8245 1.95196 58.2456 -85.922 -62.8592
RightUpLeg  -15.4488 -4.67957 4.54424
RightLeg  27.1623 0.166946 -0.153785
RightFoot  -7.9639 0.00501221 -2.02896
RightToes  3.49245e-010 0 -3.6325e-017
Spine  4.24606 -0.017041 14.1521
Spine1  7.69936 2.31367 -3.14041
HEad  -15.8959 -1.28602 -1.53166
LeftShoulder1  -0.498255 4.73523 -34.2994
LeftArm  11.4548 11.8779 -40.7855
LeftForeArm  26.2582 -16.0455 -7.5684
LeftHand  -0.0493868 7.9217 -0.193203
RightShoulder  -0.878342 -5.96129 29.1368
RightArm  15.7181 6.46822 48.7385
RightForeArm  17.102 7.91494 7.94981
RightHand  -0.272947 5.52568 -3.23024
LeftUpLeg  -7.84713 -2.66956 5.64758
LeftLeg  63.6642 -1.36176 -2.37519
LeftFoot  6.23382 0.737269 -5.02385
LeftToes  -5.6298e-010 8.41567e-011 -1.83319e-011
350
root  25.5792 38.0775 1.84114 60.6084 -86.809 -65.3226
RightUpLeg  -12.7735 -4.97 3.84544
RightLeg  26.0661 0.962209 0.271402
RightFoot  -9.45685 -0.0296115 -2.06868
RightToes  3.49245e-010 0 -3.6325e-017
Spine  4.46745 0.434465 14.2051
Spine1  7.49447 2.97286 -3.92479
HEad  -15.5934 -1.36121 -1.46348
LeftShoulder1  -0.508659 4.76042 -34.3079
LeftArm  11.7417 14.9755 -39.8972
LeftForeArm  27.285 -16.196 -7.45255
LeftHand  -0.0882406 8.38338 -1.57749
RightShoulder  -0.810305 -5.81796 28.405
RightArm  16.8695 9.51176 49.66
RightForeArm  15.728 9.8367 7.7519
RightHand  -0.264855 5.20853 -3.20145
LeftUpLeg  -11.6632 -2.53234 4.88728
LeftLeg  64.9195 -1.53264 -2.92317
LeftFoot  5.12988 0.525575 -3.8376
LeftToes  -5.6298e-010 8.41567e-011 -1.83319e-011
351
root  24.445 38.3214 1.74558 64.1605 -87.5129 -68.7755
RightUpLeg  -10.0756 -5.49092 3.21507
RightLeg  24.4692 1.88324 0.675399
RightFoot  -10.754 -0.0631799 -1.88704
RightToes  3.49245e-010 0 -3.6325e-017
Spine  4.21148 0.881499 14.8318
Spine1  7.53164 3.72635 -5.51528
HEad  -15.015 -1.57805 -1.66185
LeftShoulder1  -0.437973 4.60203 -33.7291
LeftArm  11.6574 17.6258 -39.198
LeftForeArm  27.3877 -15.8492 -7.67407
LeftHand  -0.0827297 8.70873 -1.16643
RightShoulder  -0.850246 -5.94009 28.2927
RightArm  18.3925 12.1876 50.0609
RightForeArm  12.4935 12.4681 7.15227
RightHand  -0.316709 5.98503 -3.56191
LeftUpLeg  -15.215 -2.61283 4.1435
LeftLeg  63.5904 -1.8281 -3.38767
LeftFoot  3.1404 0.317923 -2.66657
LeftToes  -5.6298e-010 8.41567e-011 -1.83319e-011
352
root  23.3191 38.5403 1.64058 72.3858 -88.2383 -77.0247
RightUpLeg  -7.18969 -6.22304 2.49344
RightLeg  22.6909 3.05336 1.10858
RightFoot  -11.8498 -0.0885148 -1.87083
RightToes  3.49245e-010 0 -3.6325e-017
Spine  4.21038 1.43124 14.7224
Spine1  7.33631 4.30401 -6.19629
HEad  -14.4537 -2.0327 -2.02406
LeftShoulder1  -0.390255 4.48707 -33.5454
LeftArm  10.41 19.8697 -38.5607
LeftForeArm  28.4513 -15.3199 -7.86421
LeftHand  -0.0760595 9.19982 -0.743974
RightShoulder  -0.766166 -5.76827 27.202
RightArm  19.1792 13.9733 50.7273
RightForeArm  9.12945 15.2975 6.13714
RightHand  -0.322158 6.33486 -3.51791
LeftUpLeg  -17.8748 -2.57854 3.48629
LeftLeg  59.5871 -2.12276 -3.36798
LeftFoot  0.430007 0.23655 -2.30821
LeftToes  -5.6298e-010 8.41567e-011 -1.83319e-011
353
root  22.2133 38.6909 1.55284 89.0684 -88.8928 -93.7236
RightUpLeg  -4.46479 -7.19827 1.57019
RightLeg  21.1644 4.51331 1.66949
RightFoot  -13.0325 -0.117401 -1.97747
RightToes  3.49245e-010 0 -3.6325e-017
Spine  4.34153 1.74774 14.3435
Spine1  7.09161 4.60179 -6.86646
HEad  -13.9791 -1.9512 -2.10032
LeftShoulder1  -0.440378 4.61067 -33.6403
LeftArm  9.4092 21.8764 -37.7723
LeftForeArm  28.7148 -15.3648 -7.66544
LeftHand  -0.0853788 9.65223 -0.842885
RightShoulder  -0.72195 -5.66235 26.7939
RightArm  20.4907 15.9862 50.8293
RightForeArm  6.04565 18.1943 5.2969
RightHand  -0.394889 6.63675 -4.15698
LeftUpLeg  -19.7115 -2.53323 2.77866
LeftLeg  53.2309 -2.28952 -2.83095
LeftFoot  -1.32641 0.13744 -1.48893
LeftToes  -5.6298e-010 8.41567e-011 -1.83319e-011
354
root  21.1327 38.8153 1.47332 132.944 -89.3069 -137.48
RightUpLeg  -1.95271 -7.59579 0.667753
RightLeg  19.5917 5.55116 1.85673
RightFoot  -13.971 -0.144884 -2.1955
RightToes  3.49245e-010 0 -3.6325e-017
Spine  4.4536 2.02881 13.9492
Spine1  6.90615 4.92044 -7.97281
HEad  -13.8902 -1.7113 -2.18093
LeftShoulder1  -0.483276 4.72079 -33.5602
LeftArm  7.61977 23.1915 -37.1004
LeftForeArm  29.7738 -14.8626 -7.70567
LeftHand  -0.094772 9.53332 -1.13346
RightShoulder  -0.728827 -5.68694 26.7258
RightArm  20.9448 17.8624 50.7631
RightForeArm  5.34335 20.9282 4.7208
RightHand  -0.349526 7.11676 -3.59245
LeftUpLeg  -20.6556 -2.08957 2.11845
LeftLeg  44.3645 -1.9878 -1.72537
LeftFoot  -2.16032 0.124619 -1.39414
LeftToes  -5.6298e-010 8.41567e-011 -1.83319e-011
355
root  20.0516 38.9198 1.39432 -178.324 -89.0769 173.978
RightUpLeg  0.599972 -7.82612 -0.0566245
RightLeg  17.7339 6.31722 1.86927
RightFoot  -14.6897 -0.169286 -2.3973
RightToes  3.49245e-010 0 -3.6325e-017
Spine  4.40292 2.32396 13.0306
Spine1  6.83516 5.04651 -8.29654
HEad  -13.9147 -1.74295 -2.37578
LeftShoulder1  -0.457827 4.65501 -33.6208
LeftArm  5.71882 24.139 -36.5695
LeftForeArm  30.2615 -14.0341 -7.89854
LeftHand  -0.0833981 9.3917 -0.886029
RightShoulder  -0.681487 -5.5815 26.1238
RightArm  20.2861 19.1632 50.835
RightForeArm  6.02849 23.163 4.65683
RightHand  -0.357015 7.03798 -3.68324
LeftUpLeg  -20.6915 -1.2275 1.61327
LeftLeg  33.5838 -0.997265 -0.364884
LeftFoot  -1.35891 0.163613 -1.76733
LeftToes  -5.6298e-010 8.41567e-011 -1.83319e-011
356
root  18.969 38.977 1.33172 -173.097 -88.6986 169.217
RightUpLeg  2.89187 -7.80509 -0.393263
RightLeg  15.7617 6.74563 1.77904
RightFoot  -15.3993 -0.189139 -2.40053
RightToes  3.49245e-010 0 -3.6325e-017
Spine  3.89928 2.44782 12.3146
Spine1  7.06838 5.04891 -8.75367
HEad  -14.138 -1.47247 -2.47843
LeftShoulder1  -0.47485 4.70384 -33.4202
LeftArm  3.17811 24.5646 -36.4941
LeftForeArm  31.4555 -12.9165 -8.07936
LeftHand  -0.091743 9.65847 -1.04912
RightShoulder  -0.688826 -5.59084 26.3317
RightArm  20.133 20.539 50.6165
RightForeArm  6.66301 24.6118 4.91639
RightHand  -0.348789 7.09819 -3.5925
LeftUpLeg  -20.2836 0.00917596 1.3803
LeftLeg  21.8323 -0.627032 0.0798777
LeftFoot  -0.638796 0.231169 -2.43283
LeftToes  -5.6298e-010 8.41567e-011 -1.83319e-011
357
root  17.8727 39.0126 1.28929 -167.213 -88.5324 163.715
RightUpLeg  5.41622 -8.09413 -1.01527
RightLeg  13.6389 7.47255 1.93867
RightFoot  -15.9295 -0.202062 -2.35229
RightToes  3.49245e-010 0 -3.6325e-017
Spine  3.47335 2.44271 11.3126
Spine1  7.30262 4.92829 -8.91307
HEad  -14.0481 -1.21771 -2.40371
LeftShoulder1  -0.468431 4.68503 -33.4962
LeftArm  1.47825 24.6596 -36.2464
LeftForeArm  33.4038 -12.1437 -8.09892
LeftHand  -0.104881 8.78928 -1.82264
RightShoulder  -0.678216 -5.56635 26.1882
RightArm  20.1344 21.0923 50.7658
RightForeArm  6.71173 25.3867 5.0913
RightHand  -0.408196 7.06865 -4.15238
LeftUpLeg  -19.3664 1.10857 0.87124
LeftLeg  10.1963 -1.05249 0.179235
LeftFoot  -0.777852 0.184989 -1.95839
LeftToes  -5.6298e-010 8.41567e-011 -1.83319e-011
358
root  16.7225 38.9542 1.26989 -168.585 -88.0511 165.256
RightUpLeg  7.84167 -7.86732 -1.33481
RightLeg  12.2131 7.9839 1.64312
RightFoot  -16.8068 -0.217679 -2.18633
RightToes  3.49245e-010 0 -3.6325e-017
Spine  3.14486 2.44805 10.0533
Spine1  7.68889 4.80002 -8.53352
HEad  -13.9765 -0.694111 -2.60037
LeftShoulder1  -0.524712 4.81639 -33.8213
LeftArm  0.981659 24.1892 -35.9367
LeftForeArm  33.7976 -11.4763 -8.31571
LeftHand  -0.118431 9.592 -1.72962
RightShoulder  -0.61543 -5.40864 25.5909
RightArm  20.8703 21.0551 51.4908
RightForeArm  6.69187 25.3418 5.0825
RightHand  -0.415117 7.29175 -4.16089
LeftUpLeg  -18.5112 1.89759 0.532573
LeftLeg  1.39559 -0.71601 0.275089
LeftFoot  -1.03809 0.27096 -2.9203
LeftToes  -5.6298e-010 8.41567e-011 -1.83319e-011
